<svg width="16" height="16" viewBox="0 0 16 16" fill="none" xmlns="http://www.w3.org/2000/svg">
<g clip-path="url(#clip0_1_4)">
<path d="M4.5 6.5H2.5V7.5H4.5V6.5Z" fill="#217346"/>
<path d="M7.5 6.5H5.5V7.5H7.5V6.5Z" fill="#217346"/>
<path d="M10.5 6.5H8.5V7.5H10.5V6.5Z" fill="#217346"/>
<path d="M13.5 6.5H11.5V7.5H13.5V6.5Z" fill="#217346"/>
<path d="M4.5 8.5H2.5V9.5H4.5V8.5Z" fill="#217346"/>
<path d="M7.5 8.5H5.5V9.5H7.5V8.5Z" fill="#217346"/>
<path d="M10.5 8.5H8.5V9.5H10.5V8.5Z" fill="#217346"/>
<path d="M13.5 8.5H11.5V9.5H13.5V8.5Z" fill="#217346"/>
<path d="M4.5 10.5H2.5V11.5H4.5V10.5Z" fill="#217346"/>
<path d="M7.5 10.5H5.5V11.5H7.5V10.5Z" fill="#217346"/>
<path d="M10.5 10.5H8.5V11.5H10.5V10.5Z" fill="#217346"/>
<path d="M13.5 10.5H11.5V11.5H13.5V10.5Z" fill="#217346"/>
<path d="M4.5 12.5H2.5V13.5H4.5V12.5Z" fill="#217346"/>
<path d="M7.5 12.5H5.5V13.5H7.5V12.5Z" fill="#217346"/>
<path d="M10.5 12.5H8.5V13.5H10.5V12.5Z" fill="#217346"/>
<path d="M13.5 12.5H11.5V13.5H13.5V12.5Z" fill="#217346"/>
<path d="M14 1.5H12.5V0.5H11.5V1.5H4.5V0.5H3.5V1.5H2C1.2 1.5 0.5 2.2 0.5 3V14C0.5 14.8 1.2 15.5 2 15.5H14C14.8 15.5 15.5 14.8 15.5 14V3C15.5 2.2 14.8 1.5 14 1.5ZM13.5 2.5V3.5H12.5V2.5H13.5ZM10.5 2.5H11.5V3.5H10.5V2.5ZM5.5 2.5V3.5H4.5V2.5H5.5ZM2.5 2.5H3.5V3.5H2.5V2.5ZM14.5 14C14.5 14.3 14.3 14.5 14 14.5H2C1.7 14.5 1.5 14.3 1.5 14V5.5H14.5V14Z" fill="#217346"/>
</g>
<defs>
<clipPath id="clip0_1_4">
<rect width="16" height="16" fill="white"/>
</clipPath>
</defs>
</svg>
