<svg xmlns="http://www.w3.org/2000/svg" xmlns:xlink="http://www.w3.org/1999/xlink" width="18" height="20" viewBox="0 0 18 20">
  <defs>
    <clipPath id="clip-path">
      <rect id="mask-box" width="18" height="20" transform="translate(0 0)" fill="none"/>
    </clipPath>
  </defs>
  <g id="icon-calendar" transform="translate(0 0)" clip-path="url(#clip-path)">
    <path id="icon" d="M14.114,1.966h-.12V1.12a1.117,1.117,0,1,0-2.234,0v.846H6.244V1.12a1.117,1.117,0,1,0-2.234,0v.846H3.887A3.89,3.89,0,0,0,0,5.86V16.107A3.89,3.89,0,0,0,3.887,20H14.114A3.89,3.89,0,0,0,18,16.107V5.86a3.89,3.89,0,0,0-3.886-3.894m2.023,13.773a2.388,2.388,0,0,1-2.386,2.39H4.272a2.388,2.388,0,0,1-2.386-2.39V9.946h14.25Zm0-7.678H1.886V6.241A2.38,2.38,0,0,1,4.01,3.878V4.893a1.117,1.117,0,1,0,2.234,0V3.851h5.516V4.893a1.117,1.117,0,1,0,2.234,0V3.875a2.381,2.381,0,0,1,2.143,2.366Z" transform="translate(0 0)"/>
    <path id="icon-2" data-name="icon" d="M12.711,20.14a.751.751,0,0,0,1.06,0l3.182-3.188a.751.751,0,1,0-1.061-1.063l-2.652,2.657-1.061-1.063a.751.751,0,0,0-1.061,1.063Z" transform="translate(-2.725 -3.895)"/>
  </g>
</svg>
