<svg width="72" height="72" viewBox="0 0 72 72" fill="none" xmlns="http://www.w3.org/2000/svg">
<mask id="mask0_127_67" style="mask-type:alpha" maskUnits="userSpaceOnUse" x="0" y="0" width="72" height="72">
<rect width="72" height="72" fill="#33C481"/>
</mask>
<g mask="url(#mask0_127_67)">
<path fill-rule="evenodd" clip-rule="evenodd" d="M14 11.7752C14 9.72052 15.6875 8.06189 17.7779 8.04951L39.1139 8.0027C39.9025 8.00097 40.66 8.30982 41.2226 8.86242L57.1148 24.4719C57.6891 25.036 58.0126 25.8072 58.0126 26.6122V61.2743C58.0126 63.329 56.3125 65 54.2221 65H17.7905C15.7001 65 14 63.329 14 61.2743V11.7752ZM37.5925 10.006L17.7897 10.0495L17.7867 10.0495C16.7583 10.0572 16 10.8604 16 11.7752V61.2743C16 62.1921 16.772 63 17.7905 63H54.2221C55.2406 63 56.0126 62.1921 56.0126 61.2743V27.2648C55.935 27.2841 55.8539 27.2943 55.7704 27.2943H40.646C38.9562 27.2943 37.5925 25.912 37.5925 24.2272V10.006ZM55.098 25.2943L39.8212 10.2893C39.7527 10.222 39.6756 10.1656 39.5925 10.1211V24.2272C39.5925 24.82 40.0733 25.2943 40.646 25.2943H55.098ZM26.4561 53.2808C25.9038 53.2808 25.4561 53.7285 25.4561 54.2808C25.4561 54.833 25.9038 55.2808 26.4561 55.2808H44.4086C44.9609 55.2808 45.4086 54.833 45.4086 54.2808C45.4086 53.7285 44.9609 53.2808 44.4086 53.2808H26.4561ZM35.3217 30.2456C35.874 30.2456 36.3217 30.6933 36.3217 31.2456V44.6389L40.1824 40.7526C40.5717 40.3608 41.2048 40.3587 41.5966 40.7479C41.9885 41.1371 41.9906 41.7703 41.6013 42.1621L36.0311 47.7693C36.0114 47.7892 35.9909 47.8081 35.9698 47.8261C35.8576 47.9216 35.7276 47.9895 35.5899 48.0278C35.5224 48.0467 35.453 48.0583 35.3829 48.0626C35.2589 48.0703 35.1329 48.0549 35.0114 48.0151C34.9876 48.0074 34.9639 47.9987 34.9405 47.989C34.915 47.9785 34.8901 47.967 34.8658 47.9546C34.7685 47.9048 34.6815 47.8401 34.6071 47.7641L29.1158 42.2364C28.7266 41.8446 28.7287 41.2114 29.1205 40.8222C29.5123 40.4329 30.1455 40.435 30.5347 40.8268L34.3217 44.6389V31.2456C34.3217 30.6933 34.7694 30.2456 35.3217 30.2456Z" fill="#1E1E1E"/>
</g>
</svg>
