<svg width="72" height="72" viewBox="0 0 72 72" fill="none" xmlns="http://www.w3.org/2000/svg">
<mask id="mask0_1229_10234" style="mask-type:alpha" maskUnits="userSpaceOnUse" x="0" y="0" width="72" height="72">
<rect width="72" height="72" fill="#33C481"/>
</mask>
<g mask="url(#mask0_1229_10234)">
<path fill-rule="evenodd" clip-rule="evenodd" d="M20 62C18.8954 62 18 61.1046 18 60V11C18 9.89543 18.8954 9 20 9H53C54.1046 9 55 9.89543 55 11V60C55 61.1046 54.1046 62 53 62H20ZM20 64H53C55.5 64 57 62.5 57 60V11C57 8.5 55.5 7 53 7H20C17.5 7 16 8.5 16 11V60C16 62.5 17.5 64 20 64ZM22.7783 20H38.2022C38.6496 20 39 19.5596 39 19.0146C39 18.4671 38.6496 18 38.2022 18H22.7783C22.3309 18 22 18.4671 22 19.0146C22 19.5596 22.3309 20 22.7783 20ZM38.2022 26H22.7783C22.3309 26 22 25.5512 22 25.0012C22 24.4464 22.3309 24 22.7783 24H38.2022C38.6496 24 39 24.4464 39 25.0012C39 25.5512 38.6496 26 38.2022 26ZM22.7754 33H50.2241C50.6592 33 51 32.5506 51 32C51 31.4494 50.6592 31 50.2241 31H22.7754C22.3403 31 22 31.4494 22 32C22 32.5506 22.3403 33 22.7754 33ZM50.2241 40H22.7754C22.3403 40 22 39.5518 22 38.9976C22 38.4483 22.3403 38 22.7754 38H50.2241C50.6592 38 51 38.4483 51 38.9976C51 39.5518 50.6592 40 50.2241 40ZM22.7754 47H50.2241C50.6592 47 51 46.5536 51 46.0012C51 45.4488 50.6592 45 50.2241 45H22.7754C22.3403 45 22 45.4488 22 46.0012C22 46.5536 22.3403 47 22.7754 47ZM50.2241 54H22.7754C22.3403 54 22 53.5506 22 53C22 52.4444 22.3403 52 22.7754 52H50.2241C50.6592 52 51 52.4444 51 53C51 53.5506 50.6592 54 50.2241 54ZM49.9268 18.2197C49.6339 17.9268 49.159 17.9268 48.8661 18.2197C48.859 18.2267 48.8524 18.2342 48.8462 18.2421L45.3738 22.6667L43.2803 20.5732C42.9874 20.2803 42.5126 20.2803 42.2197 20.5732C41.9268 20.8661 41.9268 21.341 42.2197 21.6339L44.8661 24.2803C45.159 24.5732 45.6339 24.5732 45.9268 24.2803C45.9306 24.2765 45.9342 24.2726 45.9378 24.2686C45.9403 24.2657 45.9428 24.2628 45.9452 24.2597L49.9374 19.2695C50.2196 18.9758 50.2161 18.509 49.9268 18.2197Z" fill="#1E1E1E"/>
</g>
</svg>
