<svg width="72" height="72" viewBox="0 0 72 72" fill="none" xmlns="http://www.w3.org/2000/svg">
<mask id="mask0_1229_10119" style="mask-type:alpha" maskUnits="userSpaceOnUse" x="0" y="0" width="72" height="72">
<rect width="72" height="72" fill="#33C481"/>
</mask>
<g mask="url(#mask0_1229_10119)">
<path fill-rule="evenodd" clip-rule="evenodd" d="M57.4524 13.9637C54.2799 13.9637 52.0002 16.54 52.0002 19.7125C52.0002 22.1823 55.4136 28.4443 57.5002 32.0001C59.5868 28.4443 63.0002 22.1823 63.0002 19.7125C63.0002 16.54 60.6462 13.9637 57.4524 13.9637ZM57.4389 34.9999C57.4434 35 57.4479 35.0001 57.4524 35.0001C57.7505 35.0001 58.0275 34.851 58.2191 34.5955C58.2663 34.5148 58.3414 34.3889 58.4403 34.2234C59.7233 32.0735 65.0002 23.2314 65.0002 19.7124C65.0002 15 61.583 12 57.4524 12C53.343 12 50.0002 15 50.0002 19.7125C50.0002 22.7513 53.8879 29.7596 55.7911 33.0001H36.9996C33.7207 33.0001 30.9996 35.6616 30.9996 38.9193V40.6439C30.9996 43.8981 33.7149 46.9934 36.9892 47C36.9928 47.0001 36.9965 47.0001 37.0002 47.0001H55.0002C57.0002 47.0001 59.0002 49.0001 59.0002 51.0001V53.1022C59.0002 55.0001 57.0002 57.0001 55.0002 57.0001H18.7494C21.0289 53.2479 26.3764 44.0193 26.3764 40.2338C26.3764 34.5 21.961 31 17 31C11.9964 31 8 34.5 8 40.2338C8 44.5139 14.6062 55.7523 16.0251 58.1661L16.0252 58.1663C16.1662 58.4061 16.2559 58.5587 16.2828 58.6088C16.4532 58.8643 16.638 59 17 59C17.0234 59 17.0477 58.9989 17.0724 58.9966C17.0931 58.9989 17.1144 59.0001 17.1364 59.0001H55.0002C59.0002 59.0001 61.0002 57.5001 61.0002 53.0001V51.0001C61.0002 47.5001 59.0002 45.0001 55.0002 45.0001H37.0106C37.0069 45.0001 37.0033 45.0001 36.9997 45.0001C34.7001 45.0001 32.9997 42.9434 32.9997 40.6439V38.9193C32.9997 36.6197 34.7001 35.0001 36.9996 35.0001H57.4282C57.4318 35.0001 57.4353 35 57.4389 34.9999ZM10 40.2338C10 36.1884 12.9332 33 17 33C20.9816 33 24.3526 36.2097 24.3526 40.2338C24.3526 43.4276 19.555 51.6352 17 56.0001C14.4024 51.6352 10 43.4276 10 40.2338ZM13.5365 40.6597C13.5365 38.7221 15.1119 37.1466 17.0494 37.1466C18.9444 37.1466 20.499 38.7221 20.499 40.6597C20.499 42.5759 18.9444 44.1516 17.0494 44.1516C15.1119 44.1516 13.5365 42.5759 13.5365 40.6597ZM11.833 40.6597C11.833 43.5341 14.1537 45.8762 17.0494 45.8762C19.9238 45.8762 22.245 43.5341 22.245 40.6597C22.245 37.764 19.9238 35.4219 17.0494 35.4219C14.1537 35.4219 11.833 37.764 11.833 40.6597ZM54.8328 19.4521C54.8328 18.0042 56.0039 16.8119 57.4943 16.8119C58.9209 16.8119 60.1345 18.0042 60.1345 19.4521C60.1345 20.8999 58.9209 22.1136 57.4943 22.1136C56.0039 22.1136 54.8328 20.8999 54.8328 19.4521ZM53.1299 19.4521C53.1299 21.8581 55.067 23.8382 57.4943 23.8382C59.8577 23.8382 61.8592 21.8581 61.8592 19.4521C61.8592 17.0461 59.8577 15.066 57.4943 15.066C55.067 15.066 53.1299 17.0461 53.1299 19.4521Z" fill="#1E1E1E"/>
</g>
</svg>
