<svg width="72" height="72" viewBox="0 0 72 72" fill="none" xmlns="http://www.w3.org/2000/svg">
<mask id="mask0_127_33" style="mask-type:alpha" maskUnits="userSpaceOnUse" x="0" y="0" width="72" height="72">
<rect width="72" height="72" fill="#33C481"/>
</mask>
<g mask="url(#mask0_127_33)">
<path fill-rule="evenodd" clip-rule="evenodd" d="M19.4024 10.3755C19.9131 10.3755 20.412 10.4111 20.9227 10.5061C21.4215 10.5893 21.8254 11.0288 21.9204 11.5751L24.2128 26.0656C24.2959 26.6239 24.0227 27.1702 23.5239 27.4315C22.7043 27.8591 21.8254 28.1442 20.9108 28.2986C20.2219 28.4174 19.6162 28.8212 19.2598 29.427C18.9035 30.0327 18.8323 30.7572 19.0579 31.4224C20.8514 36.5772 23.8446 41.3519 27.7166 45.2359C31.6124 49.1317 36.4109 52.1486 41.5895 53.9539C41.8389 54.0371 42.1121 54.0846 42.3734 54.0846C42.7891 54.0846 43.2167 53.9777 43.5849 53.752C44.1907 53.3957 44.6064 52.79 44.7133 52.1011C44.8677 51.1746 45.1646 50.2719 45.6041 49.4405C45.8298 49.001 46.2811 48.7279 46.7681 48.7279H46.7681C46.8394 48.7279 46.9106 48.7279 46.97 48.7397L61.4249 51.0321C61.9712 51.1152 62.4107 51.5309 62.4939 52.0298L64.8337 51.626L62.5057 52.1129C62.5889 52.588 62.6245 53.0869 62.6245 53.5976C62.6245 58.5743 58.5743 62.6245 53.5976 62.6245C29.7714 62.6245 10.3755 43.2286 10.3755 19.4024C10.3755 14.4257 14.4257 10.3755 19.4024 10.3755ZM64.8456 51.7091C64.8456 51.6853 64.8456 51.6497 64.8337 51.626C64.5724 50.0938 63.3253 48.9298 61.7931 48.6803L47.3382 46.388C47.1482 46.3524 46.9581 46.3405 46.7562 46.3405C45.4022 46.3405 44.1313 47.0888 43.4899 48.324C42.9435 49.3692 42.5634 50.4976 42.3615 51.6972C37.4205 49.975 33.0021 47.16 29.3913 43.5493C25.7925 39.9504 23.0012 35.5557 21.3028 30.6385C22.4786 30.4484 23.5951 30.0683 24.6166 29.5339C26.03 28.8093 26.8139 27.2534 26.5645 25.6856L24.2721 11.195C24.0346 9.66285 22.8587 8.41571 21.3265 8.15441H21.3028C20.6851 8.04751 20.0556 8 19.4143 8H19.4024C13.1073 8 8 13.1073 8 19.4024C8 44.5826 28.4174 65 53.5976 65C59.8927 65 65 59.8927 65 53.5976C65 52.9562 64.9525 52.3267 64.8456 51.7091ZM58.4199 15.8034C60.0708 15.8034 61.4011 17.1455 61.4011 18.7846V28.536C61.4011 30.187 60.059 31.5173 58.4199 31.5173H55.8306C55.2011 31.5173 54.5953 31.7667 54.1559 32.2181L52.5049 33.869C52.493 32.5744 51.4359 31.5173 50.1294 31.5173H40.7818C39.1309 31.5173 37.8006 30.1751 37.8006 28.536V18.7728C37.8006 17.1218 39.1427 15.7915 40.7818 15.7915H58.4199V15.8034ZM58.4199 13.416H40.7818C37.8243 13.416 35.4251 15.8153 35.4251 18.7728V28.536C35.4251 31.4935 37.8243 33.8928 40.7818 33.8928H50.1294V37.0047C50.1294 37.6579 50.6639 38.0855 51.2102 38.0855C51.4715 38.0855 51.7447 37.9905 51.9585 37.7648L55.8306 33.8928H58.4199C61.3774 33.8928 63.7766 31.4935 63.7766 28.536V18.7846C63.7766 15.8271 61.3774 13.4279 58.4199 13.4279V13.416ZM43.2523 23.6545C43.2523 23.0013 43.7868 22.4668 44.4401 22.4668C45.0934 22.4668 45.6278 23.0013 45.6278 23.6545C45.6278 24.3078 45.0934 24.8423 44.4401 24.8423C43.7868 24.8423 43.2523 24.3078 43.2523 23.6545ZM48.4666 23.6545C48.4666 23.0013 49.001 22.4668 49.6543 22.4668C50.3076 22.4668 50.842 23.0013 50.842 23.6545C50.842 24.3078 50.3076 24.8423 49.6543 24.8423C49.001 24.8423 48.4666 24.3078 48.4666 23.6545ZM54.8566 22.4668C54.2034 22.4668 53.6689 23.0013 53.6689 23.6545C53.6689 24.3078 54.2034 24.8423 54.8566 24.8423C55.5099 24.8423 56.0444 24.3078 56.0444 23.6545C56.0444 23.0013 55.5099 22.4668 54.8566 22.4668Z" fill="#1E1E1E"/>
</g>
</svg>
