<svg width="72" height="72" viewBox="0 0 72 72" fill="none" xmlns="http://www.w3.org/2000/svg">
<mask id="mask0_127_32" style="mask-type:alpha" maskUnits="userSpaceOnUse" x="0" y="0" width="72" height="72">
<rect width="72" height="72" fill="#33C481"/>
</mask>
<g mask="url(#mask0_127_32)">
<path fill-rule="evenodd" clip-rule="evenodd" d="M44.6175 12C39.5288 9.33993 33.496 9.32675 28.3832 12H44.6175ZM48.3403 12C41.3122 6.68436 31.7394 6.649 24.6599 12H21.5818C17.4589 12 14 15.1559 14 19.1744V33C14 33.5523 14.4477 34 15 34C15.5523 34 16 33.5523 16 33V19.1744C16 16.379 18.4412 14 21.5818 14H49C49.5523 14 50 13.5523 50 13C50 12.4477 49.5523 12 49 12H48.3403ZM60.8672 25.8994C61.2432 25.4948 61.8759 25.4716 62.2805 25.8475L64.7534 28.1453C64.957 28.3345 65.0727 28.5999 65.0727 28.8779V58.7615C65.0727 62.2409 62.2517 65.0736 58.756 65.0736H14.244C10.7637 65.0736 7.92734 62.2563 7.92734 58.7615V55.3024C7.92734 54.7502 8.37505 54.3024 8.92734 54.3024C9.47962 54.3024 9.92734 54.7502 9.92734 55.3024V58.7615C9.92734 61.147 11.8636 63.0736 14.244 63.0736H58.756C61.1457 63.0736 63.0727 61.1377 63.0727 58.7615V29.3137L60.9191 27.3126C60.5145 26.9367 60.4913 26.304 60.8672 25.8994ZM10 29C10 28.4477 9.55228 28 9 28C8.44772 28 8 28.4477 8 29L8 48C8 48.5523 8.44771 49 9 49C9.55228 49 10 48.5523 10 48L10 29ZM62.7051 13.8932C63.1984 13.2277 63.0587 12.2882 62.3932 11.7949C61.7277 11.3016 60.7882 11.4413 60.2949 12.1068L51.1904 24.39L47.3838 20.0447C46.8379 19.4215 45.8902 19.3589 45.2671 19.9048C44.644 20.4507 44.5813 21.3984 45.1272 22.0215L50.1596 27.766C50.4585 28.1072 50.8957 28.2948 51.349 28.2763C51.8022 28.2578 52.2228 28.0352 52.4929 27.6708L62.7051 13.8932ZM23.2839 22.4167C23.2839 21.8645 23.7317 21.4167 24.2839 21.4167H36.5C37.0523 21.4167 37.5 21.8645 37.5 22.4167C37.5 22.969 37.0523 23.4167 36.5 23.4167H24.2839C23.7317 23.4167 23.2839 22.969 23.2839 22.4167ZM24 37C24 36.4477 24.4477 36 25 36L46 36C46.5523 36 47 36.4477 47 37C47 37.5523 46.5523 38 46 38L25 38C24.4477 38 24 37.5523 24 37ZM24.2839 31.2751C23.7317 31.2751 23.2839 31.7229 23.2839 32.2751C23.2839 32.8274 23.7317 33.2751 24.2839 33.2751H42.0887C42.641 33.2751 43.0887 32.8274 43.0887 32.2751C43.0887 31.7229 42.641 31.2751 42.0887 31.2751H24.2839ZM23 27C23 26.4477 23.4477 26 24 26H29C29.5523 26 30 26.4477 30 27C30 27.5523 29.5523 28 29 28H24C23.4477 28 23 27.5523 23 27ZM34 26C33.4477 26 33 26.4477 33 27C33 27.5523 33.4477 28 34 28H42C42.5523 28 43 27.5523 43 27C43 26.4477 42.5523 26 42 26H34ZM25.0607 48.9393C25.6464 49.5251 25.6464 50.4749 25.0607 51.0607L18.0607 58.0607C17.4749 58.6464 16.5251 58.6464 15.9393 58.0607C15.3536 57.4749 15.3536 56.5251 15.9393 55.9393L22.9393 48.9393C23.5251 48.3536 24.4749 48.3536 25.0607 48.9393ZM48.9393 51.0607C48.3536 50.4749 48.3536 49.5251 48.9393 48.9393C49.5251 48.3536 50.4749 48.3536 51.0607 48.9393L58.0607 55.9393C58.6464 56.5251 58.6464 57.4749 58.0607 58.0607C57.4749 58.6464 56.5251 58.6464 55.9393 58.0607L48.9393 51.0607Z" fill="#1E1E1E"/>
<path d="M14.5 23.5L8.92734 28.6308L29.9469 46.1977C33.8417 49.4468 39.5046 49.4468 43.387 46.1977L64.0727 28.8902" stroke="#1E1E1E" stroke-width="2" stroke-linecap="round" stroke-linejoin="round"/>
</g>
</svg>
